<mxfile host="Electron" modified="2024-06-14T12:36:36.428Z" agent="Mozilla/5.0 (Macintosh; Intel Mac OS X 10_15_7) AppleWebKit/537.36 (KHTML, like Gecko) draw.io/24.5.3 Chrome/124.0.6367.207 Electron/30.0.6 Safari/537.36" etag="KMic-1UQxko-d6Tnj4Xa" version="24.5.3" type="device">
  <diagram id="lxTALKAJYJVbzctQvIOl" name="Page-1">
    <mxGraphModel dx="1590" dy="1751" grid="1" gridSize="10" guides="1" tooltips="1" connect="1" arrows="1" fold="1" page="1" pageScale="1" pageWidth="827" pageHeight="1169" math="0" shadow="0">
      <root>
        <mxCell id="0" />
        <mxCell id="1" parent="0" />
        <mxCell id="nKvA9a1JDW1m7SVoBl28-14" value="" style="rounded=0;orthogonalLoop=1;jettySize=auto;html=1;endArrow=halfCircle;endFill=0;endSize=6;strokeWidth=1;sketch=0;fontColor=#FF0000;exitX=-0.011;exitY=0.878;exitDx=0;exitDy=0;exitPerimeter=0;" parent="1" source="sx454A95CAvDDaveUcH7-27" edge="1">
          <mxGeometry relative="1" as="geometry">
            <mxPoint x="353" y="-397.99" as="sourcePoint" />
            <mxPoint x="353" y="-257" as="targetPoint" />
            <Array as="points">
              <mxPoint x="50" y="-577" />
              <mxPoint x="50" y="-330" />
            </Array>
          </mxGeometry>
        </mxCell>
        <mxCell id="nKvA9a1JDW1m7SVoBl28-15" value="" style="rounded=0;orthogonalLoop=1;jettySize=auto;html=1;endArrow=none;endFill=0;sketch=0;sourcePerimeterSpacing=0;targetPerimeterSpacing=0;fontColor=#FF0000;" parent="1" target="nKvA9a1JDW1m7SVoBl28-16" edge="1">
          <mxGeometry relative="1" as="geometry">
            <mxPoint x="353" y="-221" as="sourcePoint" />
            <mxPoint x="154.65888695992498" y="-256.1848492363929" as="targetPoint" />
            <Array as="points" />
          </mxGeometry>
        </mxCell>
        <mxCell id="nKvA9a1JDW1m7SVoBl28-16" value="" style="ellipse;whiteSpace=wrap;html=1;align=center;aspect=fixed;resizable=0;points=[];outlineConnect=0;sketch=0;fontColor=#FF0000;strokeColor=#000000;" parent="1" vertex="1">
          <mxGeometry x="348" y="-262" width="10" height="10" as="geometry" />
        </mxCell>
        <mxCell id="gNRnJRc3GnDZ5AVx7Kpy-1" value="" style="rounded=0;orthogonalLoop=1;jettySize=auto;html=1;endArrow=halfCircle;endFill=0;endSize=6;strokeWidth=1;sketch=0;" parent="1" edge="1">
          <mxGeometry relative="1" as="geometry">
            <mxPoint x="227" y="-111" as="sourcePoint" />
            <mxPoint x="241.00018578030927" y="-110.95689815327842" as="targetPoint" />
          </mxGeometry>
        </mxCell>
        <mxCell id="gNRnJRc3GnDZ5AVx7Kpy-2" value="" style="rounded=0;orthogonalLoop=1;jettySize=auto;html=1;endArrow=none;endFill=0;sketch=0;sourcePerimeterSpacing=0;targetPerimeterSpacing=0;" parent="1" source="gNRnJRc3GnDZ5AVx7Kpy-4" edge="1">
          <mxGeometry relative="1" as="geometry">
            <mxPoint x="257" y="-111" as="targetPoint" />
          </mxGeometry>
        </mxCell>
        <mxCell id="NcSt-bwvKA1drNSGb4Bv-15" value="" style="rounded=0;orthogonalLoop=1;jettySize=auto;html=1;endArrow=halfCircle;endFill=0;endSize=6;strokeWidth=1;sketch=0;fontColor=#FF0000;exitX=0;exitY=1;exitDx=0;exitDy=0;" parent="1" source="0iCpFj2WhP6g9uH44iQj-31" edge="1">
          <mxGeometry relative="1" as="geometry">
            <mxPoint x="457" y="-395.99" as="sourcePoint" />
            <mxPoint x="457" y="-255" as="targetPoint" />
            <Array as="points">
              <mxPoint x="520" y="-320" />
              <mxPoint x="457" y="-300" />
            </Array>
          </mxGeometry>
        </mxCell>
        <mxCell id="NcSt-bwvKA1drNSGb4Bv-16" value="" style="rounded=0;orthogonalLoop=1;jettySize=auto;html=1;endArrow=none;endFill=0;sketch=0;sourcePerimeterSpacing=0;targetPerimeterSpacing=0;fontColor=#FF0000;" parent="1" target="NcSt-bwvKA1drNSGb4Bv-17" edge="1">
          <mxGeometry relative="1" as="geometry">
            <mxPoint x="457" y="-219" as="sourcePoint" />
            <mxPoint x="258.658886959925" y="-254.1848492363929" as="targetPoint" />
            <Array as="points" />
          </mxGeometry>
        </mxCell>
        <mxCell id="NcSt-bwvKA1drNSGb4Bv-17" value="" style="ellipse;whiteSpace=wrap;html=1;align=center;aspect=fixed;resizable=0;points=[];outlineConnect=0;sketch=0;fontColor=#FF0000;strokeColor=#000000;" parent="1" vertex="1">
          <mxGeometry x="452" y="-260" width="10" height="10" as="geometry" />
        </mxCell>
        <mxCell id="kdA6kWYeyA7RJzTD9q6g-35" value="" style="rounded=0;orthogonalLoop=1;jettySize=auto;html=1;endArrow=none;endFill=0;sketch=0;sourcePerimeterSpacing=0;targetPerimeterSpacing=0;exitX=0.928;exitY=0.968;exitDx=0;exitDy=0;exitPerimeter=0;" parent="1" source="0iCpFj2WhP6g9uH44iQj-31" edge="1">
          <mxGeometry relative="1" as="geometry">
            <mxPoint x="867" y="-401" as="sourcePoint" />
            <mxPoint x="902" y="-366" as="targetPoint" />
            <Array as="points">
              <mxPoint x="897" y="-381" />
              <mxPoint x="937" y="-381" />
              <mxPoint x="937" y="-366" />
            </Array>
          </mxGeometry>
        </mxCell>
        <mxCell id="xBv4u4DVVfbc11mX55yY-3" value="Rotinas geradas automaticamente:&lt;br&gt;_arm_end.c&lt;br&gt;_arm_start.c&lt;br&gt;kinetis_sysinit.c" style="shape=note;whiteSpace=wrap;html=1;backgroundOutline=1;darkOpacity=0.05;size=16;" parent="1" vertex="1">
          <mxGeometry x="850" y="-246" width="129" height="74" as="geometry" />
        </mxCell>
        <mxCell id="xBv4u4DVVfbc11mX55yY-4" value="" style="endArrow=none;dashed=1;html=1;rounded=0;entryX=0.5;entryY=1;entryDx=0;entryDy=0;entryPerimeter=0;exitX=0.5;exitY=0;exitDx=0;exitDy=0;" parent="1" source="sx454A95CAvDDaveUcH7-38" target="xBv4u4DVVfbc11mX55yY-3" edge="1">
          <mxGeometry width="50" height="50" relative="1" as="geometry">
            <mxPoint x="706" y="150" as="sourcePoint" />
            <mxPoint x="736" y="200" as="targetPoint" />
          </mxGeometry>
        </mxCell>
        <mxCell id="sx454A95CAvDDaveUcH7-27" value="&lt;font color=&quot;#ff0000&quot;&gt;«component»&lt;br&gt;&lt;b&gt;SIM&lt;/b&gt;&lt;br&gt;&lt;/font&gt;" style="html=1;dropTarget=0;strokeColor=#FF0000;" parent="1" vertex="1">
          <mxGeometry x="67" y="-656" width="180" height="90" as="geometry" />
        </mxCell>
        <mxCell id="sx454A95CAvDDaveUcH7-28" value="" style="shape=module;jettyWidth=8;jettyHeight=4;strokeColor=#FF0000;" parent="sx454A95CAvDDaveUcH7-27" vertex="1">
          <mxGeometry x="1" width="20" height="20" relative="1" as="geometry">
            <mxPoint x="-27" y="7" as="offset" />
          </mxGeometry>
        </mxCell>
        <mxCell id="sx454A95CAvDDaveUcH7-38" value="«component»&lt;br&gt;&lt;b&gt;Setup Code&lt;/b&gt;" style="html=1;dropTarget=0;fontColor=#000000;strokeColor=#000000;" parent="1" vertex="1">
          <mxGeometry x="738" y="-127" width="150" height="70" as="geometry" />
        </mxCell>
        <mxCell id="sx454A95CAvDDaveUcH7-39" value="" style="shape=module;jettyWidth=8;jettyHeight=4;fontColor=#000000;strokeColor=#000000;" parent="sx454A95CAvDDaveUcH7-38" vertex="1">
          <mxGeometry x="1" width="20" height="20" relative="1" as="geometry">
            <mxPoint x="-27" y="7" as="offset" />
          </mxGeometry>
        </mxCell>
        <mxCell id="sx454A95CAvDDaveUcH7-64" value="Customização dos módulos" style="shape=note;whiteSpace=wrap;html=1;backgroundOutline=1;darkOpacity=0.05;size=16;" parent="1" vertex="1">
          <mxGeometry x="-97" y="-265" width="90" height="53" as="geometry" />
        </mxCell>
        <mxCell id="dzFz9JbQEsLeZCm4js_e-1" value="Arquivos-cabeçalho foram omitidos" style="shape=note;whiteSpace=wrap;html=1;backgroundOutline=1;darkOpacity=0.05;size=16;" parent="1" vertex="1">
          <mxGeometry x="-99" y="-198" width="90" height="53" as="geometry" />
        </mxCell>
        <mxCell id="ZvhBdplOL1Mwdpi4D6Ji-6" value="" style="rounded=0;orthogonalLoop=1;jettySize=auto;html=1;endArrow=halfCircle;endFill=0;endSize=6;strokeWidth=1;sketch=0;fontColor=#FF0000;exitX=1;exitY=0.878;exitDx=0;exitDy=0;exitPerimeter=0;" parent="1" source="sx454A95CAvDDaveUcH7-27" edge="1">
          <mxGeometry relative="1" as="geometry">
            <mxPoint x="430" y="-355" as="sourcePoint" />
            <mxPoint x="431" y="-256" as="targetPoint" />
            <Array as="points">
              <mxPoint x="530" y="-490" />
              <mxPoint x="530" y="-360" />
              <mxPoint x="431" y="-360" />
            </Array>
          </mxGeometry>
        </mxCell>
        <mxCell id="ZvhBdplOL1Mwdpi4D6Ji-7" value="" style="rounded=0;orthogonalLoop=1;jettySize=auto;html=1;endArrow=none;endFill=0;sketch=0;sourcePerimeterSpacing=0;targetPerimeterSpacing=0;fontColor=#FF0000;" parent="1" target="ZvhBdplOL1Mwdpi4D6Ji-8" edge="1">
          <mxGeometry relative="1" as="geometry">
            <mxPoint x="431" y="-220" as="sourcePoint" />
            <mxPoint x="232.65888695992498" y="-255.1848492363929" as="targetPoint" />
            <Array as="points" />
          </mxGeometry>
        </mxCell>
        <mxCell id="ZvhBdplOL1Mwdpi4D6Ji-8" value="" style="ellipse;whiteSpace=wrap;html=1;align=center;aspect=fixed;resizable=0;points=[];outlineConnect=0;sketch=0;fontColor=#FF0000;strokeColor=#000000;" parent="1" vertex="1">
          <mxGeometry x="426" y="-261" width="10" height="10" as="geometry" />
        </mxCell>
        <mxCell id="ZvhBdplOL1Mwdpi4D6Ji-15" value="" style="endArrow=none;dashed=1;html=1;rounded=0;exitX=0;exitY=0;exitDx=82;exitDy=8;exitPerimeter=0;entryX=0.283;entryY=0;entryDx=0;entryDy=0;entryPerimeter=0;" parent="1" source="sx454A95CAvDDaveUcH7-64" target="kdA6kWYeyA7RJzTD9q6g-19" edge="1">
          <mxGeometry width="50" height="50" relative="1" as="geometry">
            <mxPoint x="176" y="-230" as="sourcePoint" />
            <mxPoint x="314.0007345320296" y="-251.08570169373684" as="targetPoint" />
          </mxGeometry>
        </mxCell>
        <mxCell id="ZvhBdplOL1Mwdpi4D6Ji-16" value="«component»&lt;br&gt;&lt;b&gt;main.c&lt;/b&gt;" style="html=1;dropTarget=0;fontColor=#000000;strokeColor=#000000;" parent="1" vertex="1">
          <mxGeometry x="348" y="-223" width="150" height="96" as="geometry" />
        </mxCell>
        <mxCell id="ZvhBdplOL1Mwdpi4D6Ji-17" value="" style="shape=module;jettyWidth=8;jettyHeight=4;fontColor=#000000;strokeColor=#000000;" parent="ZvhBdplOL1Mwdpi4D6Ji-16" vertex="1">
          <mxGeometry x="1" width="20" height="20" relative="1" as="geometry">
            <mxPoint x="-27" y="7" as="offset" />
          </mxGeometry>
        </mxCell>
        <mxCell id="ZvhBdplOL1Mwdpi4D6Ji-23" value="inicialização&lt;br&gt;básica" style="text;html=1;align=center;verticalAlign=middle;resizable=0;points=[];autosize=1;strokeColor=none;fillColor=none;" parent="1" vertex="1">
          <mxGeometry x="515" y="-130" width="90" height="40" as="geometry" />
        </mxCell>
        <mxCell id="ZvhBdplOL1Mwdpi4D6Ji-27" value="" style="rounded=0;orthogonalLoop=1;jettySize=auto;html=1;endArrow=none;endFill=0;sketch=0;sourcePerimeterSpacing=0;targetPerimeterSpacing=0;entryX=0;entryY=0.357;entryDx=0;entryDy=0;entryPerimeter=0;" parent="1" source="ZvhBdplOL1Mwdpi4D6Ji-29" target="sx454A95CAvDDaveUcH7-38" edge="1">
          <mxGeometry relative="1" as="geometry">
            <mxPoint x="570" y="-193" as="targetPoint" />
          </mxGeometry>
        </mxCell>
        <mxCell id="0iCpFj2WhP6g9uH44iQj-27" value="" style="ellipse;whiteSpace=wrap;html=1;align=center;aspect=fixed;resizable=0;points=[];outlineConnect=0;sketch=0;fontColor=#FF0000;strokeColor=#000000;flipH=1;" parent="1" vertex="1">
          <mxGeometry x="911" y="-454" width="10" height="10" as="geometry" />
        </mxCell>
        <mxCell id="0iCpFj2WhP6g9uH44iQj-28" value="" style="endArrow=none;html=1;rounded=0;entryX=-0.2;entryY=0.5;entryDx=0;entryDy=0;entryPerimeter=0;" parent="1" source="0iCpFj2WhP6g9uH44iQj-27" edge="1">
          <mxGeometry width="50" height="50" relative="1" as="geometry">
            <mxPoint x="907" y="-449" as="sourcePoint" />
            <mxPoint x="896" y="-449" as="targetPoint" />
          </mxGeometry>
        </mxCell>
        <mxCell id="0iCpFj2WhP6g9uH44iQj-33" value="IRQA5" style="text;html=1;align=center;verticalAlign=middle;resizable=0;points=[];autosize=1;strokeColor=none;fillColor=none;" parent="1" vertex="1">
          <mxGeometry x="915" y="-464" width="60" height="30" as="geometry" />
        </mxCell>
        <mxCell id="Oefuxfy3iKnczAg5gWwN-3" value="&lt;font color=&quot;#ff0000&quot;&gt;«component»&lt;br&gt;&lt;b&gt;NVIC&lt;/b&gt;&lt;/font&gt;" style="html=1;dropTarget=0;strokeColor=#FF0000;" parent="1" vertex="1">
          <mxGeometry x="70" y="-172" width="113" height="50" as="geometry" />
        </mxCell>
        <mxCell id="Oefuxfy3iKnczAg5gWwN-4" value="" style="shape=module;jettyWidth=8;jettyHeight=4;strokeColor=#FF0000;" parent="Oefuxfy3iKnczAg5gWwN-3" vertex="1">
          <mxGeometry x="1" width="20" height="20" relative="1" as="geometry">
            <mxPoint x="-27" y="7" as="offset" />
          </mxGeometry>
        </mxCell>
        <mxCell id="Oefuxfy3iKnczAg5gWwN-6" value="" style="rounded=0;orthogonalLoop=1;jettySize=auto;html=1;endArrow=none;endFill=0;sketch=0;sourcePerimeterSpacing=0;targetPerimeterSpacing=0;fontColor=#FF0000;exitX=0;exitY=0.167;exitDx=0;exitDy=0;exitPerimeter=0;" parent="1" source="ZvhBdplOL1Mwdpi4D6Ji-16" edge="1">
          <mxGeometry relative="1" as="geometry">
            <mxPoint x="319" y="-171" as="sourcePoint" />
            <mxPoint x="260" y="-160" as="targetPoint" />
          </mxGeometry>
        </mxCell>
        <mxCell id="Oefuxfy3iKnczAg5gWwN-9" value="&lt;font color=&quot;#000000&quot;&gt;IRQs&lt;br&gt;Prioridade&lt;br&gt;&lt;/font&gt;" style="text;html=1;align=center;verticalAlign=middle;resizable=0;points=[];autosize=1;strokeColor=none;fillColor=none;fontColor=#FF0000;" parent="1" vertex="1">
          <mxGeometry x="260" y="-223" width="80" height="40" as="geometry" />
        </mxCell>
        <mxCell id="VrWv1ER5kj9YLByMh3OY-26" value="" style="rounded=0;orthogonalLoop=1;jettySize=auto;html=1;endArrow=none;endFill=0;sketch=0;sourcePerimeterSpacing=0;targetPerimeterSpacing=0;exitX=1;exitY=0.5;exitDx=0;exitDy=0;" parent="1" target="VrWv1ER5kj9YLByMh3OY-28" edge="1" source="sx454A95CAvDDaveUcH7-27">
          <mxGeometry relative="1" as="geometry">
            <mxPoint x="490" y="-560" as="sourcePoint" />
          </mxGeometry>
        </mxCell>
        <mxCell id="VrWv1ER5kj9YLByMh3OY-27" value="" style="rounded=0;orthogonalLoop=1;jettySize=auto;html=1;endArrow=halfCircle;endFill=0;endSize=6;strokeWidth=1;sketch=0;startArrow=none;exitX=0.2;exitY=-0.011;exitDx=0;exitDy=0;exitPerimeter=0;" parent="1" source="0iCpFj2WhP6g9uH44iQj-31" edge="1">
          <mxGeometry relative="1" as="geometry">
            <mxPoint x="554.98" y="-559.9960000000001" as="sourcePoint" />
            <Array as="points">
              <mxPoint x="590" y="-560" />
            </Array>
            <mxPoint x="521" y="-560" as="targetPoint" />
          </mxGeometry>
        </mxCell>
        <mxCell id="VrWv1ER5kj9YLByMh3OY-28" value="" style="ellipse;whiteSpace=wrap;html=1;align=center;aspect=fixed;resizable=0;points=[];outlineConnect=0;sketch=0;" parent="1" vertex="1">
          <mxGeometry x="515" y="-566" width="10" height="10" as="geometry" />
        </mxCell>
        <mxCell id="Fh9LcDiXX9Jsw2TDYq0d-10" value="Somente ativação dos sinais de relógio por SIM explicitada. Fontes de sinais de relógio foram omitidas." style="shape=note;whiteSpace=wrap;html=1;backgroundOutline=1;darkOpacity=0.05;size=16;" parent="1" vertex="1">
          <mxGeometry x="-98" y="-492" width="130" height="108" as="geometry" />
        </mxCell>
        <mxCell id="Fh9LcDiXX9Jsw2TDYq0d-31" value="ativação de&lt;br&gt;sinais de&lt;br&gt;relógio" style="text;html=1;align=center;verticalAlign=middle;resizable=0;points=[];autosize=1;strokeColor=none;fillColor=none;" parent="1" vertex="1">
          <mxGeometry x="426" y="-364" width="80" height="60" as="geometry" />
        </mxCell>
        <mxCell id="JNNoF8wtNPgnTtKB8osN-4" value="sinais de&amp;nbsp;&lt;br&gt;relógio&lt;br&gt;(platform)" style="text;html=1;align=center;verticalAlign=middle;resizable=0;points=[];autosize=1;strokeColor=none;fillColor=none;" parent="1" vertex="1">
          <mxGeometry x="511" y="-564" width="70" height="60" as="geometry" />
        </mxCell>
        <mxCell id="0iCpFj2WhP6g9uH44iQj-31" value="&lt;font color=&quot;#ff0000&quot;&gt;«component»&lt;br&gt;&lt;b&gt;PORTA&lt;/b&gt;&lt;br&gt;&lt;/font&gt;" style="html=1;dropTarget=0;strokeColor=#FF0000;" parent="1" vertex="1">
          <mxGeometry x="710" y="-491" width="180" height="93" as="geometry" />
        </mxCell>
        <mxCell id="0iCpFj2WhP6g9uH44iQj-32" value="" style="shape=module;jettyWidth=8;jettyHeight=4;strokeColor=#FF0000;" parent="0iCpFj2WhP6g9uH44iQj-31" vertex="1">
          <mxGeometry x="1" width="20" height="20" relative="1" as="geometry">
            <mxPoint x="-27" y="7" as="offset" />
          </mxGeometry>
        </mxCell>
        <mxCell id="0iCpFj2WhP6g9uH44iQj-23" value="" style="whiteSpace=wrap;html=1;aspect=fixed;" parent="1" vertex="1">
          <mxGeometry x="885" y="-454" width="10" height="10" as="geometry" />
        </mxCell>
        <mxCell id="kdA6kWYeyA7RJzTD9q6g-14" value="&lt;font color=&quot;#ff0000&quot;&gt;«component»&lt;br&gt;&lt;b&gt;GPIOA&lt;/b&gt;&lt;br&gt;&lt;/font&gt;" style="html=1;dropTarget=0;strokeColor=#FF0000;" parent="1" vertex="1">
          <mxGeometry x="758" y="-385" width="113" height="50" as="geometry" />
        </mxCell>
        <mxCell id="kdA6kWYeyA7RJzTD9q6g-15" value="" style="shape=module;jettyWidth=8;jettyHeight=4;strokeColor=#FF0000;" parent="kdA6kWYeyA7RJzTD9q6g-14" vertex="1">
          <mxGeometry x="1" width="20" height="20" relative="1" as="geometry">
            <mxPoint x="-27" y="7" as="offset" />
          </mxGeometry>
        </mxCell>
        <mxCell id="kdA6kWYeyA7RJzTD9q6g-16" value="" style="rounded=0;orthogonalLoop=1;jettySize=auto;html=1;endArrow=halfCircle;endFill=0;endSize=6;strokeWidth=1;sketch=0;fontColor=#FF0000;exitX=0.149;exitY=0.981;exitDx=0;exitDy=0;exitPerimeter=0;" parent="1" edge="1" source="0iCpFj2WhP6g9uH44iQj-31">
          <mxGeometry relative="1" as="geometry">
            <mxPoint x="593.94" y="-394.95399999999995" as="sourcePoint" />
            <mxPoint x="525" y="-256" as="targetPoint" />
            <Array as="points" />
          </mxGeometry>
        </mxCell>
        <mxCell id="kdA6kWYeyA7RJzTD9q6g-17" value="" style="rounded=0;orthogonalLoop=1;jettySize=auto;html=1;endArrow=none;endFill=0;sketch=0;sourcePerimeterSpacing=0;targetPerimeterSpacing=0;fontColor=#FF0000;" parent="1" target="kdA6kWYeyA7RJzTD9q6g-18" edge="1">
          <mxGeometry relative="1" as="geometry">
            <mxPoint x="494.03703703703695" y="-223" as="sourcePoint" />
            <mxPoint x="326.658886959925" y="-255.1848492363929" as="targetPoint" />
            <Array as="points" />
          </mxGeometry>
        </mxCell>
        <mxCell id="kdA6kWYeyA7RJzTD9q6g-18" value="" style="ellipse;whiteSpace=wrap;html=1;align=center;aspect=fixed;resizable=0;points=[];outlineConnect=0;sketch=0;fontColor=#FF0000;strokeColor=#000000;" parent="1" vertex="1">
          <mxGeometry x="520" y="-261" width="10" height="10" as="geometry" />
        </mxCell>
        <mxCell id="kdA6kWYeyA7RJzTD9q6g-19" value="função&lt;br&gt;GPIO" style="text;html=1;align=center;verticalAlign=middle;resizable=0;points=[];autosize=1;strokeColor=none;fillColor=none;" parent="1" vertex="1">
          <mxGeometry x="507" y="-256" width="60" height="40" as="geometry" />
        </mxCell>
        <mxCell id="kdA6kWYeyA7RJzTD9q6g-20" value="" style="rounded=0;orthogonalLoop=1;jettySize=auto;html=1;endArrow=none;endFill=0;sketch=0;sourcePerimeterSpacing=0;targetPerimeterSpacing=0;exitX=1;exitY=0.871;exitDx=0;exitDy=0;exitPerimeter=0;" parent="1" source="0iCpFj2WhP6g9uH44iQj-31" target="kdA6kWYeyA7RJzTD9q6g-22" edge="1">
          <mxGeometry relative="1" as="geometry">
            <mxPoint x="890" y="-407" as="sourcePoint" />
          </mxGeometry>
        </mxCell>
        <mxCell id="kdA6kWYeyA7RJzTD9q6g-21" value="" style="rounded=0;orthogonalLoop=1;jettySize=auto;html=1;endArrow=halfCircle;endFill=0;endSize=6;strokeWidth=1;sketch=0;startArrow=none;exitX=1;exitY=0.75;exitDx=0;exitDy=0;entryX=0.429;entryY=0.033;entryDx=0;entryDy=0;entryPerimeter=0;" parent="1" source="kdA6kWYeyA7RJzTD9q6g-14" target="kdA6kWYeyA7RJzTD9q6g-25" edge="1">
          <mxGeometry relative="1" as="geometry">
            <mxPoint x="977" y="-407" as="sourcePoint" />
            <Array as="points">
              <mxPoint x="967" y="-347" />
              <mxPoint x="967" y="-408" />
            </Array>
            <mxPoint x="921" y="-411" as="targetPoint" />
          </mxGeometry>
        </mxCell>
        <mxCell id="kdA6kWYeyA7RJzTD9q6g-22" value="" style="ellipse;whiteSpace=wrap;html=1;align=center;aspect=fixed;resizable=0;points=[];outlineConnect=0;sketch=0;" parent="1" vertex="1">
          <mxGeometry x="915" y="-415" width="10" height="10" as="geometry" />
        </mxCell>
        <mxCell id="kdA6kWYeyA7RJzTD9q6g-25" value="ativação" style="text;html=1;align=center;verticalAlign=middle;resizable=0;points=[];autosize=1;strokeColor=none;fillColor=none;" parent="1" vertex="1">
          <mxGeometry x="893" y="-410" width="70" height="30" as="geometry" />
        </mxCell>
        <mxCell id="kdA6kWYeyA7RJzTD9q6g-30" value="" style="rounded=0;orthogonalLoop=1;jettySize=auto;html=1;endArrow=none;endFill=0;sketch=0;sourcePerimeterSpacing=0;targetPerimeterSpacing=0;exitX=1;exitY=0.5;exitDx=0;exitDy=0;" parent="1" target="kdA6kWYeyA7RJzTD9q6g-32" edge="1">
          <mxGeometry relative="1" as="geometry">
            <mxPoint x="499" y="-207" as="sourcePoint" />
          </mxGeometry>
        </mxCell>
        <mxCell id="kdA6kWYeyA7RJzTD9q6g-31" value="" style="rounded=0;orthogonalLoop=1;jettySize=auto;html=1;endArrow=halfCircle;endFill=0;endSize=6;strokeWidth=1;sketch=0;startArrow=none;exitX=0;exitY=0.5;exitDx=0;exitDy=0;" parent="1" source="kdA6kWYeyA7RJzTD9q6g-14" edge="1">
          <mxGeometry relative="1" as="geometry">
            <mxPoint x="563.98" y="-206.9960000000001" as="sourcePoint" />
            <Array as="points">
              <mxPoint x="720" y="-210" />
              <mxPoint x="560" y="-207" />
            </Array>
            <mxPoint x="530" y="-207" as="targetPoint" />
          </mxGeometry>
        </mxCell>
        <mxCell id="kdA6kWYeyA7RJzTD9q6g-32" value="" style="ellipse;whiteSpace=wrap;html=1;align=center;aspect=fixed;resizable=0;points=[];outlineConnect=0;sketch=0;" parent="1" vertex="1">
          <mxGeometry x="524" y="-213" width="10" height="10" as="geometry" />
        </mxCell>
        <mxCell id="kdA6kWYeyA7RJzTD9q6g-34" value="valores&lt;br&gt;binários" style="text;html=1;align=center;verticalAlign=middle;resizable=0;points=[];autosize=1;strokeColor=none;fillColor=none;" parent="1" vertex="1">
          <mxGeometry x="548" y="-246" width="70" height="40" as="geometry" />
        </mxCell>
        <mxCell id="kdA6kWYeyA7RJzTD9q6g-36" value="" style="rounded=0;orthogonalLoop=1;jettySize=auto;html=1;endArrow=halfCircle;endFill=0;endSize=6;strokeWidth=1;sketch=0;" parent="1" edge="1">
          <mxGeometry relative="1" as="geometry">
            <mxPoint x="872" y="-366" as="sourcePoint" />
            <Array as="points" />
            <mxPoint x="899" y="-366" as="targetPoint" />
          </mxGeometry>
        </mxCell>
        <mxCell id="kdA6kWYeyA7RJzTD9q6g-37" value="" style="ellipse;whiteSpace=wrap;html=1;align=center;aspect=fixed;resizable=0;points=[];outlineConnect=0;sketch=0;" parent="1" vertex="1">
          <mxGeometry x="894" y="-371" width="10" height="10" as="geometry" />
        </mxCell>
        <mxCell id="kdA6kWYeyA7RJzTD9q6g-38" value="sinais binários" style="text;html=1;align=center;verticalAlign=middle;resizable=0;points=[];autosize=1;strokeColor=none;fillColor=none;" parent="1" vertex="1">
          <mxGeometry x="866" y="-369" width="100" height="30" as="geometry" />
        </mxCell>
        <mxCell id="NcSt-bwvKA1drNSGb4Bv-3" value="" style="rounded=0;orthogonalLoop=1;jettySize=auto;html=1;endArrow=none;endFill=0;sketch=0;sourcePerimeterSpacing=0;targetPerimeterSpacing=0;exitX=0.25;exitY=1;exitDx=0;exitDy=0;" parent="1" source="sx454A95CAvDDaveUcH7-27" target="NcSt-bwvKA1drNSGb4Bv-5" edge="1">
          <mxGeometry relative="1" as="geometry">
            <mxPoint x="367" y="-502" as="sourcePoint" />
            <Array as="points">
              <mxPoint x="355" y="-503" />
            </Array>
          </mxGeometry>
        </mxCell>
        <mxCell id="NcSt-bwvKA1drNSGb4Bv-4" value="" style="rounded=0;orthogonalLoop=1;jettySize=auto;html=1;endArrow=halfCircle;endFill=0;endSize=6;strokeWidth=1;sketch=0;startArrow=none;" parent="1" edge="1">
          <mxGeometry relative="1" as="geometry">
            <mxPoint x="467" y="-490" as="sourcePoint" />
            <Array as="points">
              <mxPoint x="467" y="-502" />
            </Array>
            <mxPoint x="398" y="-502" as="targetPoint" />
          </mxGeometry>
        </mxCell>
        <mxCell id="NcSt-bwvKA1drNSGb4Bv-5" value="" style="ellipse;whiteSpace=wrap;html=1;align=center;aspect=fixed;resizable=0;points=[];outlineConnect=0;sketch=0;" parent="1" vertex="1">
          <mxGeometry x="392" y="-508" width="10" height="10" as="geometry" />
        </mxCell>
        <mxCell id="NcSt-bwvKA1drNSGb4Bv-6" value="sinais de relógio" style="text;html=1;align=center;verticalAlign=middle;resizable=0;points=[];autosize=1;strokeColor=none;fillColor=none;" parent="1" vertex="1">
          <mxGeometry x="270" y="-364" width="110" height="30" as="geometry" />
        </mxCell>
        <mxCell id="NcSt-bwvKA1drNSGb4Bv-7" value="" style="rounded=0;orthogonalLoop=1;jettySize=auto;html=1;endArrow=halfCircle;endFill=0;endSize=6;strokeWidth=1;sketch=0;fontColor=#FF0000;exitX=0.425;exitY=0.989;exitDx=0;exitDy=0;exitPerimeter=0;" parent="1" edge="1">
          <mxGeometry relative="1" as="geometry">
            <mxPoint x="409" y="-398.99" as="sourcePoint" />
            <mxPoint x="409" y="-258" as="targetPoint" />
            <Array as="points" />
          </mxGeometry>
        </mxCell>
        <mxCell id="NcSt-bwvKA1drNSGb4Bv-8" value="" style="rounded=0;orthogonalLoop=1;jettySize=auto;html=1;endArrow=none;endFill=0;sketch=0;sourcePerimeterSpacing=0;targetPerimeterSpacing=0;fontColor=#FF0000;" parent="1" target="NcSt-bwvKA1drNSGb4Bv-9" edge="1">
          <mxGeometry relative="1" as="geometry">
            <mxPoint x="409" y="-222" as="sourcePoint" />
            <mxPoint x="210.65888695992498" y="-257.1848492363929" as="targetPoint" />
            <Array as="points" />
          </mxGeometry>
        </mxCell>
        <mxCell id="NcSt-bwvKA1drNSGb4Bv-9" value="" style="ellipse;whiteSpace=wrap;html=1;align=center;aspect=fixed;resizable=0;points=[];outlineConnect=0;sketch=0;fontColor=#FF0000;strokeColor=#000000;" parent="1" vertex="1">
          <mxGeometry x="404" y="-263" width="10" height="10" as="geometry" />
        </mxCell>
        <mxCell id="NcSt-bwvKA1drNSGb4Bv-10" value="configuração&lt;br&gt;de timer e &lt;br&gt;canal 1" style="text;html=1;align=center;verticalAlign=middle;resizable=0;points=[];autosize=1;strokeColor=none;fillColor=none;" parent="1" vertex="1">
          <mxGeometry x="618" y="-680" width="90" height="60" as="geometry" />
        </mxCell>
        <mxCell id="NcSt-bwvKA1drNSGb4Bv-11" value="" style="ellipse;whiteSpace=wrap;html=1;align=center;aspect=fixed;resizable=0;points=[];outlineConnect=0;sketch=0;fontColor=#FF0000;strokeColor=#000000;flipH=1;" parent="1" vertex="1">
          <mxGeometry x="911" y="-473" width="10" height="10" as="geometry" />
        </mxCell>
        <mxCell id="NcSt-bwvKA1drNSGb4Bv-12" value="" style="endArrow=none;html=1;rounded=0;entryX=-0.2;entryY=0.5;entryDx=0;entryDy=0;entryPerimeter=0;" parent="1" source="NcSt-bwvKA1drNSGb4Bv-11" edge="1">
          <mxGeometry width="50" height="50" relative="1" as="geometry">
            <mxPoint x="907" y="-468" as="sourcePoint" />
            <mxPoint x="896" y="-468" as="targetPoint" />
          </mxGeometry>
        </mxCell>
        <mxCell id="NcSt-bwvKA1drNSGb4Bv-13" value="" style="whiteSpace=wrap;html=1;aspect=fixed;" parent="1" vertex="1">
          <mxGeometry x="885" y="-473" width="10" height="10" as="geometry" />
        </mxCell>
        <mxCell id="NcSt-bwvKA1drNSGb4Bv-14" value="IRQA12" style="text;html=1;align=left;verticalAlign=middle;resizable=0;points=[];autosize=1;strokeColor=none;fillColor=none;" parent="1" vertex="1">
          <mxGeometry x="923" y="-485" width="70" height="30" as="geometry" />
        </mxCell>
        <mxCell id="NcSt-bwvKA1drNSGb4Bv-18" value="função &lt;br&gt;PWM" style="text;html=1;align=center;verticalAlign=middle;resizable=0;points=[];autosize=1;strokeColor=none;fillColor=none;" parent="1" vertex="1">
          <mxGeometry x="426" y="-259" width="60" height="40" as="geometry" />
        </mxCell>
        <mxCell id="NcSt-bwvKA1drNSGb4Bv-19" value="" style="rounded=0;orthogonalLoop=1;jettySize=auto;html=1;endArrow=none;endFill=0;sketch=0;sourcePerimeterSpacing=0;targetPerimeterSpacing=0;exitX=1;exitY=0.5;exitDx=0;exitDy=0;" parent="1" source="NcSt-bwvKA1drNSGb4Bv-1" target="NcSt-bwvKA1drNSGb4Bv-21" edge="1">
          <mxGeometry relative="1" as="geometry">
            <mxPoint x="490" y="-440" as="sourcePoint" />
          </mxGeometry>
        </mxCell>
        <mxCell id="NcSt-bwvKA1drNSGb4Bv-20" value="" style="rounded=0;orthogonalLoop=1;jettySize=auto;html=1;endArrow=halfCircle;endFill=0;endSize=6;strokeWidth=1;sketch=0;startArrow=none;exitX=0;exitY=0.5;exitDx=0;exitDy=0;" parent="1" source="0iCpFj2WhP6g9uH44iQj-31" edge="1">
          <mxGeometry relative="1" as="geometry">
            <mxPoint x="583" y="-373.0229999999999" as="sourcePoint" />
            <Array as="points" />
            <mxPoint x="514" y="-443" as="targetPoint" />
          </mxGeometry>
        </mxCell>
        <mxCell id="NcSt-bwvKA1drNSGb4Bv-21" value="" style="ellipse;whiteSpace=wrap;html=1;align=center;aspect=fixed;resizable=0;points=[];outlineConnect=0;sketch=0;" parent="1" vertex="1">
          <mxGeometry x="509" y="-448" width="10" height="10" as="geometry" />
        </mxCell>
        <mxCell id="NcSt-bwvKA1drNSGb4Bv-23" value="PWM" style="text;html=1;align=center;verticalAlign=middle;resizable=0;points=[];autosize=1;strokeColor=none;fillColor=none;" parent="1" vertex="1">
          <mxGeometry x="487" y="-439" width="50" height="30" as="geometry" />
        </mxCell>
        <mxCell id="gNRnJRc3GnDZ5AVx7Kpy-4" value="" style="ellipse;whiteSpace=wrap;html=1;align=center;aspect=fixed;resizable=0;points=[];outlineConnect=0;sketch=0;" parent="1" vertex="1">
          <mxGeometry x="237" y="-116" width="10" height="10" as="geometry" />
        </mxCell>
        <mxCell id="gNRnJRc3GnDZ5AVx7Kpy-5" value="IRQ22" style="text;html=1;align=center;verticalAlign=middle;resizable=0;points=[];autosize=1;strokeColor=none;fillColor=none;" parent="1" vertex="1">
          <mxGeometry x="214" y="-110" width="60" height="30" as="geometry" />
        </mxCell>
        <mxCell id="nKvA9a1JDW1m7SVoBl28-17" value="configuração&lt;br&gt;intermodular" style="text;html=1;align=center;verticalAlign=middle;resizable=0;points=[];autosize=1;strokeColor=none;fillColor=none;" parent="1" vertex="1">
          <mxGeometry x="-40" y="-361" width="90" height="40" as="geometry" />
        </mxCell>
        <mxCell id="wUu51o1tfb6HQYNTT9g3-3" value="" style="ellipse;whiteSpace=wrap;html=1;align=center;aspect=fixed;resizable=0;points=[];outlineConnect=0;sketch=0;fontColor=#FF0000;strokeColor=#000000;flipH=1;" vertex="1" parent="1">
          <mxGeometry x="911" y="-435" width="10" height="10" as="geometry" />
        </mxCell>
        <mxCell id="wUu51o1tfb6HQYNTT9g3-4" value="" style="endArrow=none;html=1;rounded=0;entryX=-0.2;entryY=0.5;entryDx=0;entryDy=0;entryPerimeter=0;" edge="1" parent="1" source="wUu51o1tfb6HQYNTT9g3-3">
          <mxGeometry width="50" height="50" relative="1" as="geometry">
            <mxPoint x="907" y="-430" as="sourcePoint" />
            <mxPoint x="896" y="-430" as="targetPoint" />
          </mxGeometry>
        </mxCell>
        <mxCell id="wUu51o1tfb6HQYNTT9g3-5" value="NMI" style="text;html=1;align=center;verticalAlign=middle;resizable=0;points=[];autosize=1;strokeColor=none;fillColor=none;" vertex="1" parent="1">
          <mxGeometry x="920" y="-445" width="50" height="30" as="geometry" />
        </mxCell>
        <mxCell id="wUu51o1tfb6HQYNTT9g3-6" value="" style="whiteSpace=wrap;html=1;aspect=fixed;" vertex="1" parent="1">
          <mxGeometry x="885" y="-435" width="10" height="10" as="geometry" />
        </mxCell>
        <mxCell id="wUu51o1tfb6HQYNTT9g3-10" value="" style="rounded=0;orthogonalLoop=1;jettySize=auto;html=1;endArrow=halfCircle;endFill=0;endSize=6;strokeWidth=1;sketch=0;exitX=0.5;exitY=1;exitDx=0;exitDy=0;" edge="1" parent="1" source="ZvhBdplOL1Mwdpi4D6Ji-16" target="ZvhBdplOL1Mwdpi4D6Ji-29">
          <mxGeometry relative="1" as="geometry">
            <mxPoint x="423" y="-127" as="sourcePoint" />
            <mxPoint x="540" y="-80" as="targetPoint" />
            <Array as="points" />
          </mxGeometry>
        </mxCell>
        <mxCell id="ZvhBdplOL1Mwdpi4D6Ji-29" value="" style="ellipse;whiteSpace=wrap;html=1;align=center;aspect=fixed;resizable=0;points=[];outlineConnect=0;sketch=0;" parent="1" vertex="1">
          <mxGeometry x="532" y="-90" width="10" height="10" as="geometry" />
        </mxCell>
        <mxCell id="wUu51o1tfb6HQYNTT9g3-11" value="" style="rounded=0;orthogonalLoop=1;jettySize=auto;html=1;endArrow=halfCircle;endFill=0;endSize=6;strokeWidth=1;sketch=0;fontColor=#FF0000;exitX=0.92;exitY=1.02;exitDx=0;exitDy=0;exitPerimeter=0;" edge="1" parent="1" source="Oefuxfy3iKnczAg5gWwN-3" target="Oefuxfy3iKnczAg5gWwN-7">
          <mxGeometry relative="1" as="geometry">
            <mxPoint x="174" y="-121" as="sourcePoint" />
            <mxPoint x="260" y="-160" as="targetPoint" />
          </mxGeometry>
        </mxCell>
        <mxCell id="Oefuxfy3iKnczAg5gWwN-7" value="" style="ellipse;whiteSpace=wrap;html=1;align=center;aspect=fixed;resizable=0;points=[];outlineConnect=0;sketch=0;fontColor=#FF0000;strokeColor=#000000;" parent="1" vertex="1">
          <mxGeometry x="250" y="-160" width="10" height="10" as="geometry" />
        </mxCell>
        <mxCell id="wUu51o1tfb6HQYNTT9g3-12" value="" style="group" vertex="1" connectable="0" parent="1">
          <mxGeometry x="90" y="-488" width="180" height="90" as="geometry" />
        </mxCell>
        <mxCell id="NcSt-bwvKA1drNSGb4Bv-1" value="&lt;font color=&quot;#ff0000&quot;&gt;«component»&lt;br&gt;&lt;b&gt;TPM1&lt;/b&gt;&lt;br&gt;&lt;/font&gt;" style="html=1;dropTarget=0;strokeColor=#FF0000;" parent="wUu51o1tfb6HQYNTT9g3-12" vertex="1">
          <mxGeometry width="180" height="90" as="geometry" />
        </mxCell>
        <mxCell id="NcSt-bwvKA1drNSGb4Bv-2" value="" style="shape=module;jettyWidth=8;jettyHeight=4;strokeColor=#FF0000;" parent="wUu51o1tfb6HQYNTT9g3-12" vertex="1">
          <mxGeometry x="155" y="10" width="20" height="20" as="geometry" />
        </mxCell>
      </root>
    </mxGraphModel>
  </diagram>
</mxfile>
